<?xml version="1.0" standalone="no"?>
<!DOCTYPE svg PUBLIC "-//W3C//DTD SVG 20010904//EN"
 "http://www.w3.org/TR/2001/REC-SVG-20010904/DTD/svg10.dtd">
<svg version="1.0" xmlns="http://www.w3.org/2000/svg"
 width="231.000000pt" height="211.000000pt" viewBox="0 0 231.000000 211.000000"
 preserveAspectRatio="xMidYMid meet">

<g transform="translate(0.000000,211.000000) scale(0.100000,-0.100000)"
fill="#000000" stroke="none">
<path d="M1065 2044 c-16 -3 -75 -16 -130 -29 -347 -85 -624 -358 -723 -713
-24 -86 -27 -114 -26 -252 0 -137 3 -166 27 -253 107 -390 425 -673 827 -737
221 -35 507 33 700 168 202 139 349 348 408 577 36 139 37 346 3 480 -73 286
-259 520 -515 649 -141 71 -275 106 -421 111 -66 2 -133 1 -150 -1z m246 -129
c205 -35 354 -116 493 -266 86 -93 144 -192 187 -317 30 -88 33 -110 37 -242
4 -129 1 -156 -19 -230 -44 -164 -121 -298 -233 -409 l-65 -65 -11 30 c-5 16
-17 41 -25 56 -15 27 -15 27 66 108 62 61 79 84 74 98 -4 9 -9 67 -10 127 -2
99 -5 117 -31 169 -15 32 -45 75 -66 95 -101 101 -300 109 -422 16 -55 -41
-108 -121 -118 -174 -20 -110 -20 -127 -4 -159 12 -24 14 -37 6 -51 -17 -33
-12 -69 13 -83 12 -7 27 -11 33 -10 6 1 25 -16 43 -38 18 -22 53 -51 79 -65
43 -23 44 -25 14 -19 -31 5 -33 4 -57 -48 -14 -30 -28 -77 -31 -104 -10 -73
-20 -86 -32 -39 -112 432 -97 396 -168 417 -33 10 -66 18 -75 18 -25 0 -34 33
-13 45 10 6 34 24 53 41 20 17 46 34 59 38 23 8 29 21 12 31 -5 3 -10 15 -10
26 0 14 7 19 26 19 25 0 26 2 20 39 -6 37 -5 38 34 54 47 18 50 31 12 51 -16
8 -34 22 -41 30 -11 13 -10 17 5 22 42 13 115 49 125 61 9 9 -2 18 -47 38
l-58 26 53 53 c58 59 59 57 -24 71 -22 4 -43 9 -48 12 -4 2 9 34 29 70 19 35
34 66 32 69 -3 2 -31 -5 -63 -16 -41 -14 -62 -17 -69 -10 -6 6 -13 47 -15 90
-1 44 -6 80 -11 80 -10 0 -89 -57 -123 -88 l-27 -26 -17 24 c-10 14 -33 42
-52 63 -38 43 -44 39 -55 -30 -3 -23 -10 -53 -15 -66 l-9 -24 -68 23 c-38 12
-70 22 -71 20 -1 -1 6 -26 17 -54 30 -79 28 -88 -26 -96 -26 -3 -64 -6 -85 -6
-22 0 -39 -3 -39 -8 0 -4 20 -32 45 -62 25 -30 45 -59 45 -65 0 -5 -25 -28
-55 -50 -30 -22 -54 -43 -55 -47 0 -4 12 -11 28 -14 35 -9 92 -51 92 -69 0 -8
-16 -33 -36 -55 l-36 -40 26 -10 c15 -5 38 -13 52 -16 23 -6 25 -10 19 -41 -3
-19 -9 -41 -11 -48 -4 -10 6 -15 38 -17 36 -3 44 -7 46 -26 4 -26 28 -40 44
-24 13 13 98 -34 98 -54 0 -15 -11 -21 -106 -54 l-62 -22 -22 -76 c-12 -43
-28 -98 -36 -124 l-15 -47 -46 52 c-139 156 -213 353 -213 567 0 347 183 637
498 787 156 75 324 98 493 68z m-644 -907 c-3 -7 -5 -2 -5 12 0 14 2 19 5 13
2 -7 2 -19 0 -25z m393 -403 c0 -5 -11 8 -25 30 -13 22 -24 45 -25 50 0 6 11
-8 25 -30 13 -22 24 -44 25 -50z m-343 -117 c-3 -8 -6 -5 -6 6 -1 11 2 17 5
13 3 -3 4 -12 1 -19z m366 -39 c-17 -14 -33 -33 -36 -40 -4 -10 -6 -9 -6 3 -1
9 13 26 29 38 17 12 30 29 31 38 0 13 2 14 6 3 3 -9 -7 -26 -24 -42z m-306
-51 c-3 -8 -6 -5 -6 6 -1 11 2 17 5 13 3 -3 4 -12 1 -19z"/>
</g>
</svg>
